<svg width="48" height="48" viewBox="0 0 48 48" fill="none" xmlns="http://www.w3.org/2000/svg"><path d="M47.96 12.5L44.7 27.21a7.5 7.5 0 01-7.3 5.88 1.87 1.87 0 110-3.74 3.71 3.71 0 003.64-2.94l3.24-14.71a1.88 1.88 0 013.67.8zm-5.02 29.97a5.54 5.54 0 11-10.77-1.78h-8.1a5.54 5.54 0 11-10.47 0h-.76a5.63 5.63 0 01-5.62-5.62v-.05-.05a5.63 5.63 0 013.3-5.12L8.3 9.38a6.5 6.5 0 00-6.43-5.62 1.87 1.87 0 110-3.75C7 0 11.35 3.83 12.02 8.9v.04l2.22 20.4h13.8a1.87 1.87 0 110 3.75h-15.2c-1.03 0-1.87.84-1.87 1.87v.1c0 1.03.84 1.87 1.87 1.87h24.57a5.54 5.54 0 015.53 5.53zm-24.1-1.78a1.78 1.78 0 100 3.57 1.78 1.78 0 000-3.57zm20.35 1.78a1.78 1.78 0 10-3.57 0 1.78 1.78 0 003.57 0zM15.77 11.95c-.7-.77-.64-1.95.13-2.65l8.74-7.9a5.29 5.29 0 017.16 0l8.74 7.9a1.87 1.87 0 01-2.29 2.96v5.34a5.29 5.29 0 01-5.28 5.28h-9.6a5.29 5.29 0 01-5.28-5.28v-5.28c-.75.43-1.72.3-2.32-.37zM21.84 9v8.61c0 .84.69 1.53 1.53 1.53h9.6c.84 0 1.53-.69 1.53-1.53V9.1l.01-.2-5.23-4.72v-.01a1.56 1.56 0 00-2.12 0L21.84 9z" fill="#3B3C45"/><mask id="a" style="mask-type:alpha" maskUnits="userSpaceOnUse" x="0" y="0" width="48" height="48"><path d="M47.96 12.5L44.7 27.21a7.5 7.5 0 01-7.3 5.88 1.87 1.87 0 110-3.74 3.71 3.71 0 003.64-2.94l3.24-14.71a1.88 1.88 0 013.67.8zm-5.02 29.97a5.54 5.54 0 11-10.77-1.78h-8.1a5.54 5.54 0 11-10.47 0h-.76a5.63 5.63 0 01-5.62-5.62v-.05-.05a5.63 5.63 0 013.3-5.12L8.3 9.38a6.5 6.5 0 00-6.43-5.62 1.87 1.87 0 110-3.75C7 0 11.35 3.83 12.02 8.9v.04l2.22 20.4h13.8a1.87 1.87 0 110 3.75h-15.2c-1.03 0-1.87.84-1.87 1.87v.1c0 1.03.84 1.87 1.87 1.87h24.57a5.54 5.54 0 015.53 5.53zm-24.1-1.78a1.78 1.78 0 100 3.57 1.78 1.78 0 000-3.57zm20.35 1.78a1.78 1.78 0 10-3.57 0 1.78 1.78 0 003.57 0zM15.77 11.95c-.7-.77-.64-1.95.13-2.65l8.74-7.9a5.29 5.29 0 017.16 0l8.74 7.9a1.87 1.87 0 01-2.29 2.96v5.34a5.29 5.29 0 01-5.28 5.28h-9.6a5.29 5.29 0 01-5.28-5.28v-5.28c-.75.43-1.72.3-2.32-.37zM21.84 9v8.61c0 .84.69 1.53 1.53 1.53h9.6c.84 0 1.53-.69 1.53-1.53V9.1l.01-.2-5.23-4.72v-.01a1.56 1.56 0 00-2.12 0L21.84 9z" fill="#3B3C45"/></mask><g mask="url(#a)"><path fill="#F7A804" d="M15-8h26v32H15z"/></g></svg>