<svg width="122" height="38" viewBox="0 0 122 38" fill="none" xmlns="http://www.w3.org/2000/svg"><path d="M70.46 2.12v2.8c0 .2.09.37.22.5.14.13.32.2.5.2h6.41l-7.38 10.73c-.47.69-.47 1.47-.47 1.9v2.84c0 .43.47.87.89.65a13.85 13.85 0 0113-.04c.46.25.88-.22.88-.65v-2.98c-.04-.38-.17-.82-.63-1.07-2.13-1.21-4.63-1.56-7-1.51l6.36-9.23c.6-.86.93-1.38.93-1.77V2.12a.72.72 0 00-.22-.5.7.7 0 00-.5-.2H71.14a.64.64 0 00-.5.2.66.66 0 00-.18.5zM21.85 22.3h3.73c.19 0 .37-.06.5-.17a.76.76 0 00.27-.48V11.3v-.2c0-2.26 0-5.19 2.59-5.19 2.37 0 2.33 2.63 2.3 4.72l-.01.67v10.35c0 .35.3.65.68.7h3.74a.7.7 0 00.5-.2c.13-.13.21-.3.22-.5V11.3 11c0-1.1-.01-2.54.34-3.45a2.53 2.53 0 012.25-1.6c1.1 0 1.9.4 2.2 1.69.14.6.11 2.01.1 2.99l-.01.67v10.35c0 .35.3.65.68.7h3.7a.7.7 0 00.5-.2c.13-.13.2-.3.21-.5V9.32l.02-.96c.03-1.84.06-3.77-.95-5.16a5.23 5.23 0 00-4.33-2.16 5.32 5.32 0 00-5.18 3.62c-1.02-2.45-2.5-3.62-4.84-3.62-2.3 0-4.03 1.17-4.92 3.62h-.09V2.12a.7.7 0 00-.22-.46.69.69 0 00-.46-.19H21.9a.7.7 0 00-.5.2.72.72 0 00-.22.5v19.48c.03.17.1.33.23.44.12.12.28.2.45.21z" fill="#C4C4C4"/><path fill-rule="evenodd" clip-rule="evenodd" d="M103.36 12.04c0-6.17-3.01-11-8.57-11-5.44 0-8.45 4.74-8.4 10.82 0 6.04 2.96 10.87 8.4 10.87 5.26 0 8.57-4.74 8.57-10.7zm-11.5-.78c0-2.37.17-6.2 2.93-6.2 1.19 0 2.04.5 2.46 1.89.47 1.55.55 3.53.55 5.17 0 2.5-.17 6.6-3.06 6.6-2.88 0-2.88-4.95-2.88-7.36v-.1z" fill="#C4C4C4"/><path d="M106.8 22.3h3.74c.19 0 .37-.07.5-.2a.8.8 0 00.26-.49V11.1c0-1.34.09-2.5.6-3.71.42-.95 1.27-1.55 2.16-1.55 2.38 0 2.36 2.62 2.34 4.72V21.7c.04.3.34.57.68.61h3.73a.7.7 0 00.48-.16.72.72 0 00.24-.44V9.4c0-1.9 0-4.52-.97-6.07a4.92 4.92 0 00-4.38-2.29c-2.59 0-4.03 1.25-5.09 3.92h-.08V2a.74.74 0 00-.68-.56h-3.48a.75.75 0 00-.72.65V21.6c0 .35.29.65.67.69z" fill="#C4C4C4"/><path fill-rule="evenodd" clip-rule="evenodd" d="M64 22.45a.76.76 0 00.43-.2l.99-.84c.67-.59 1.42-1.24 1.94-1.65.3-.22.26-.65 0-1l-.24-.35c-.6-.84-1.16-1.63-1.16-3.18V9.32v-.59c.02-2.27.03-4.38-1.65-5.96-1.45-1.43-3.83-1.9-5.65-1.9-3.57 0-7.52 1.34-8.37 5.82-.08.47.26.69.56.78l3.6.38c.35 0 .56-.34.64-.69.3-1.55 1.57-2.28 3.02-2.28.76 0 1.61.3 2.08.99.48.69.47 1.6.47 2.44v.79l-1.11.13c-1.97.2-4.24.45-5.94 1.21a6.46 6.46 0 00-4 6.21c0 3.93 2.47 5.9 5.6 5.9 2.64 0 4.13-.64 6.16-2.75l.28.4c.5.75.84 1.26 1.89 2.14.14.09.3.12.46.1zm-3.35-9.23v-1.05c-2.71 0-5.56.6-5.56 3.84 0 1.63.85 2.76 2.3 2.76 1.05 0 1.99-.65 2.58-1.73.69-1.27.69-2.45.68-3.82zM14.92 22.45a.76.76 0 00.43-.2l.99-.84c.67-.59 1.42-1.24 1.94-1.65.3-.22.26-.65 0-1l-.24-.35c-.6-.84-1.16-1.63-1.16-3.18V9.32v-.59c.02-2.27.03-4.38-1.65-5.96C13.78 1.34 11.4.87 9.58.87 6 .87 2.06 2.2 1.22 6.69c-.09.47.25.69.55.78l3.6.38c.35 0 .56-.34.64-.69.3-1.55 1.57-2.28 3.02-2.28.76 0 1.61.3 2.08.99.48.69.48 1.6.47 2.44v.79l-1.11.13c-1.96.2-4.24.45-5.94 1.21a6.46 6.46 0 00-4 6.21c0 3.93 2.47 5.9 5.6 5.9 2.64 0 4.13-.64 6.17-2.75l.27.4c.5.75.84 1.26 1.89 2.14.14.09.3.12.46.1zm-3.3-9.23v-1.05c-2.72 0-5.57.6-5.57 3.84 0 1.63.85 2.76 2.3 2.76 1.06 0 2-.65 2.59-1.73.68-1.27.68-2.45.68-3.82z" fill="#C4C4C4"/><path d="M78.53 26.4c-.9-1.17-5.95-.56-8.2-.26-.68.08-.8-.52-.17-.95 4.04-2.89 10.62-2.03 11.38-1.08.76.95-.21 7.68-4 10.87-.59.47-1.14.21-.88-.43l.04-.12c.87-2.2 2.7-6.85 1.83-8.03z" fill="#C4C4C4"/><path d="M75.6 29.8c-7 5.27-17.2 8.07-25.99 8.07a46.7 46.7 0 01-31.75-12.3c-.64-.6-.09-1.41.72-.94a63.06 63.06 0 0031.76 8.54c7.76 0 16.34-1.64 24.24-5.05 1.19-.47 2.16.82 1.02 1.68z" fill="#C4C4C4"/></svg>