<svg width="48" height="49" viewBox="0 0 48 49" fill="none" xmlns="http://www.w3.org/2000/svg"><path d="M35 23c-7.17 0-13 5.83-13 13s5.83 13 13 13 13-5.83 13-13-5.83-13-13-13zm-.25 11.5h.5a3.75 3.75 0 011.25 7.27v.73a1.5 1.5 0 01-3 0V42h-1a1.5 1.5 0 010-3h2.75a.75.75 0 000-1.5h-.5a3.75 3.75 0 01-1.25-7.27v-.73a1.5 1.5 0 013 0v.5h1a1.5 1.5 0 010 3h-2.75a.75.75 0 000 1.5z" fill="#F7A804"/><path d="M34 12.92V5a2 2 0 10-4 0v4l-7.6-7.43a2 2 0 00-2.8 0L.88 19.87A3 3 0 003 25h3v11a5 5 0 005 5h5a2 2 0 100-4h-5a1 1 0 01-1-1V23a2 2 0 00-2-2H5.45L21 5.8l13.1 12.8a2 2 0 102.8-2.85L34 12.92z" fill="#3B3C45"/></svg>