<svg width="22" height="17" viewBox="0 0 22 17" fill="none" xmlns="http://www.w3.org/2000/svg"><path fill-rule="evenodd" clip-rule="evenodd" d="M2.55 8.18l.8 6.48c.04.3.28.5.56.5H18.4c.28 0 .52-.2.56-.49l.89-6.5H2.55zm-.3-1.84c-.93 0-1.65.83-1.54 1.77l.84 6.78A2.4 2.4 0 003.9 17H18.4c1.19 0 2.2-.89 2.36-2.08l.93-6.8c.12-.94-.6-1.78-1.54-1.78H2.25z" fill="#0C8BFF"/><path fill-rule="evenodd" clip-rule="evenodd" d="M10.33 2.34c-.68.38-.97.85-1 1.2L9.2 4.64 8.14 4.3C7.2 4 6.6 4.01 6.21 4.13a1.4 1.4 0 00-.82.67 6.03 6.03 0 00-.52 2.86H3.05c0-.91.05-2.56.78-3.8.4-.65.99-1.22 1.86-1.49.63-.19 1.34-.2 2.14-.04.35-.67.94-1.21 1.61-1.59 1-.56 2.28-.84 3.62-.7 2.76.28 5.61 2.33 6.92 7.07l-1.75.5c-1.14-4.15-3.47-5.55-5.36-5.75-.98-.1-1.89.11-2.54.48z" fill="#0C8BFF"/></svg>