<svg width="22" height="18" viewBox="0 0 22 18" fill="none" xmlns="http://www.w3.org/2000/svg">
<path fill-rule="evenodd" clip-rule="evenodd" d="M2.57898 8.21582L3.38907 14.7319C3.42489 15.02 3.66972 15.2363 3.96003 15.2363H18.6509C18.9384 15.2363 19.1817 15.0241 19.2209 14.7394L20.1187 8.21582H2.57898ZM2.27635 6.37354C1.32944 6.37354 0.596612 7.20312 0.713433 8.14279L1.56086 14.9592C1.71136 16.1698 2.74014 17.0786 3.96003 17.0786H18.6509C19.8588 17.0786 20.8813 16.1871 21.046 14.9905L21.9856 8.16321C22.1158 7.21695 21.3805 6.37354 20.4253 6.37354H2.27635Z" fill="#0C8BFF"/>
<path fill-rule="evenodd" clip-rule="evenodd" d="M10.4637 2.35155C9.77814 2.73478 9.48742 3.20201 9.44983 3.54734L9.32723 4.6737L8.24961 4.32378C7.29297 4.01315 6.67811 4.03055 6.29113 4.14691C5.92519 4.25695 5.66418 4.48466 5.46074 4.82558C5.00771 5.58476 4.92798 6.75045 4.92798 7.69597L3.08569 7.69597C3.08569 6.77887 3.13528 5.12737 3.87872 3.88153C4.27351 3.21995 4.87752 2.6482 5.76063 2.38266C6.39815 2.19096 7.12106 2.17697 7.93071 2.33734C8.28461 1.66381 8.8887 1.12138 9.56485 0.743439C10.5739 0.179432 11.876 -0.105262 13.2352 0.03571C16.032 0.325772 18.9286 2.384 20.2571 7.14624L18.4826 7.64129C17.3209 3.47687 14.9624 2.06701 13.0451 1.86817C12.0474 1.76469 11.1278 1.98034 10.4637 2.35155Z" fill="#0C8BFF"/>
</svg>
