<svg width="22" height="15" viewBox="0 0 22 15" fill="none" xmlns="http://www.w3.org/2000/svg"><path fill-rule="evenodd" clip-rule="evenodd" d="M19.04 5.94H2.78c-.3 0-.53.23-.53.51v6.3c0 .27.23.5.53.5h16.26c.3 0 .53-.23.53-.5v-6.3c0-.28-.23-.5-.53-.5zM2.78 4.2A2.31 2.31 0 00.4 6.45v6.3A2.31 2.31 0 002.78 15h16.26c1.31 0 2.37-1.01 2.37-2.26V6.45a2.31 2.31 0 00-2.37-2.26H2.78z" fill="#0688FF"/><path fill-rule="evenodd" clip-rule="evenodd" d="M15.8 1.75H6.03c-.3 0-.53.23-.53.5v1.96h10.85V2.26c0-.28-.24-.51-.53-.51zM6.03 0a2.31 2.31 0 00-2.37 2.26v3.7h14.52v-3.7A2.31 2.31 0 0015.81 0H6z" fill="#0688FF"/></svg>