<svg width="12" height="10" viewBox="0 0 12 10" fill="none" xmlns="http://www.w3.org/2000/svg">
<path d="M2.43957 3.31507H0.161444V9.98655H2.43957V3.31507Z" fill="#646464"/>
<path d="M2.05657 0.201635C1.83945 0.0701661 1.58429 3.99915e-06 1.32329 1.70346e-10C1.14913 -2.66581e-06 0.976688 0.0312427 0.815883 0.0919395C0.655077 0.152636 0.509078 0.241586 0.386284 0.353675C0.263488 0.465763 0.16632 0.598778 0.100366 0.74507C0.0344122 0.891361 0.000974022 1.04804 0.00197495 1.2061C0.00347524 1.44299 0.0822419 1.67416 0.228339 1.87046C0.374435 2.06677 0.581316 2.2194 0.822882 2.30911C1.06445 2.39882 1.32988 2.42158 1.58569 2.37454C1.84149 2.32749 2.07622 2.21274 2.26025 2.04475C2.44428 1.87677 2.56937 1.66308 2.61974 1.43064C2.67011 1.19821 2.6435 0.957443 2.54328 0.738716C2.44305 0.51999 2.27369 0.333104 2.05657 0.201635Z" fill="#646464"/>
<path d="M6.09639 3.31473H3.9018L3.8942 10H6.17233V6.69872C6.17233 5.83032 6.35458 4.98949 7.5392 4.98949C8.72383 4.98949 8.72383 5.98884 8.72383 6.76074V9.98622H11.002V6.32655C11.002 4.52773 10.5387 3.14932 8.26061 3.14932C7.82641 3.1339 7.39575 3.22577 7.01459 3.41512C6.63343 3.60448 6.31607 3.88422 6.09639 4.22448V3.31473Z" fill="#646464"/>
</svg>
