<svg width="117" height="34" viewBox="0 0 117 34" fill="none" xmlns="http://www.w3.org/2000/svg"><g filter="url(#filter0_d_2_713)"><mask id="a" maskUnits="userSpaceOnUse" x="4" y="0" width="109" height="26" fill="#000"><path fill="#fff" d="M4 0h109v26H4z"/><path d="M5 24.62V1.77h7c5.05 0 7.58 1.97 7.58 5.93 0 1.28-.32 2.38-.97 3.31a4.15 4.15 0 01-2.65 1.75c1.3.18 2.3.75 3.03 1.7a5.85 5.85 0 011.15 3.67c0 4.32-2.82 6.49-8.46 6.49H5zm7.2-3.14c1.53 0 2.62-.34 3.27-1.01a3.7 3.7 0 00.98-2.7c0-1.13-.36-1.96-1.08-2.47-.7-.5-1.81-.77-3.34-.77H8.62v6.95h3.58zm3.83-13.5c0-2.05-1.26-3.07-3.8-3.07H8.63v6.49h3.34c2.71 0 4.07-1.14 4.07-3.42zM22.54 16.35c0-2.82.62-4.94 1.88-6.38 1.25-1.47 2.99-2.2 5.22-2.2 2.22 0 3.94.66 5.15 1.99 1.23 1.3 1.86 3.22 1.91 5.75l-.14 2.58H26.4c.2 2.51 1.46 3.77 3.76 3.77 1.6 0 3.3-.29 5.08-.87l.73 3.03c-.74.26-1.7.48-2.89.67-1.18.2-2.16.31-2.92.31-5.08 0-7.62-2.88-7.62-8.65zM29.78 11c-1.1 0-1.92.33-2.48.98-.53.63-.83 1.68-.9 3.17h6.44c0-2.76-1.02-4.15-3.06-4.15zM39.03 23.85l.77-3.18c2.2.7 3.95 1.05 5.25 1.05 1.3 0 2.18-.13 2.65-.38.46-.24.7-.65.7-1.26 0-.6-.22-1.03-.63-1.29a9.22 9.22 0 00-2.37-.8c-2.3-.56-3.9-1.18-4.8-1.85-.9-.7-1.36-1.83-1.36-3.38 0-3.33 2.13-5 6.4-5 1.84 0 3.96.31 6.37.91L51.35 12c-2.3-.65-4.07-.98-5.32-.98-1.26 0-2.1.12-2.54.35-.42.21-.63.58-.63 1.12 0 .53.2.93.63 1.18.44.24 1.55.6 3.34 1.08 1.78.5 3.1 1.06 3.93 1.71.83.63 1.25 1.71 1.25 3.25 0 3.5-2.16 5.27-6.47 5.27-2.02 0-4.19-.38-6.5-1.12zM58.27 8.05l.07 1c1.88-.85 3.36-1.28 4.42-1.28 1.88 0 3.26.56 4.14 1.67.9 1.1 1.36 2.82 1.36 5.16v10.02h-3.58V14.7a4.9 4.9 0 00-.6-2.62c-.39-.62-1-.94-1.84-.94-.83 0-2.12.4-3.86 1.22v12.25h-3.59V8.05h3.48zM70.97 24.62V21.4h5.19V11.26h-4.9V8.05h8.48V21.4h4.91v3.2H70.97zm6.79-18.98c-.7 0-1.25-.21-1.67-.63-.4-.44-.6-1.01-.6-1.7 0-.7.22-1.26.63-1.68.42-.42.98-.63 1.67-.63.72 0 1.27.2 1.64.63.4.4.6.95.6 1.67s-.2 1.3-.6 1.71c-.4.42-.95.63-1.67.63zM87.54 24.62V1.42h3.58V14.7l2.3-.24a32.55 32.55 0 003.4-5.45l.5-.97h3.9a34.08 34.08 0 01-4.88 7.74 67.87 67.87 0 014.49 7.5l.7 1.33h-4.08a56.57 56.57 0 00-3.9-7.09l-2.43.25v6.84h-3.58zM106.95 24.62v-5.06H112v5.06h-5.05z"/></mask><path d="M5 24.62V1.77h7c5.05 0 7.58 1.97 7.58 5.93 0 1.28-.32 2.38-.97 3.31a4.15 4.15 0 01-2.65 1.75c1.3.18 2.3.75 3.03 1.7a5.85 5.85 0 011.15 3.67c0 4.32-2.82 6.49-8.46 6.49H5zm7.2-3.14c1.53 0 2.62-.34 3.27-1.01a3.7 3.7 0 00.98-2.7c0-1.13-.36-1.96-1.08-2.47-.7-.5-1.81-.77-3.34-.77H8.62v6.95h3.58zm3.83-13.5c0-2.05-1.26-3.07-3.8-3.07H8.63v6.49h3.34c2.71 0 4.07-1.14 4.07-3.42zM22.54 16.35c0-2.82.62-4.94 1.88-6.38 1.25-1.47 2.99-2.2 5.22-2.2 2.22 0 3.94.66 5.15 1.99 1.23 1.3 1.86 3.22 1.91 5.75l-.14 2.58H26.4c.2 2.51 1.46 3.77 3.76 3.77 1.6 0 3.3-.29 5.08-.87l.73 3.03c-.74.26-1.7.48-2.89.67-1.18.2-2.16.31-2.92.31-5.08 0-7.62-2.88-7.62-8.65zM29.78 11c-1.1 0-1.92.33-2.48.98-.53.63-.83 1.68-.9 3.17h6.44c0-2.76-1.02-4.15-3.06-4.15zM39.03 23.85l.77-3.18c2.2.7 3.95 1.05 5.25 1.05 1.3 0 2.18-.13 2.65-.38.46-.24.7-.65.7-1.26 0-.6-.22-1.03-.63-1.29a9.22 9.22 0 00-2.37-.8c-2.3-.56-3.9-1.18-4.8-1.85-.9-.7-1.36-1.83-1.36-3.38 0-3.33 2.13-5 6.4-5 1.84 0 3.96.31 6.37.91L51.35 12c-2.3-.65-4.07-.98-5.32-.98-1.26 0-2.1.12-2.54.35-.42.21-.63.58-.63 1.12 0 .53.2.93.63 1.18.44.24 1.55.6 3.34 1.08 1.78.5 3.1 1.06 3.93 1.71.83.63 1.25 1.71 1.25 3.25 0 3.5-2.16 5.27-6.47 5.27-2.02 0-4.19-.38-6.5-1.12zM58.27 8.05l.07 1c1.88-.85 3.36-1.28 4.42-1.28 1.88 0 3.26.56 4.14 1.67.9 1.1 1.36 2.82 1.36 5.16v10.02h-3.58V14.7a4.9 4.9 0 00-.6-2.62c-.39-.62-1-.94-1.84-.94-.83 0-2.12.4-3.86 1.22v12.25h-3.59V8.05h3.48zM70.97 24.62V21.4h5.19V11.26h-4.9V8.05h8.48V21.4h4.91v3.2H70.97zm6.79-18.98c-.7 0-1.25-.21-1.67-.63-.4-.44-.6-1.01-.6-1.7 0-.7.22-1.26.63-1.68.42-.42.98-.63 1.67-.63.72 0 1.27.2 1.64.63.4.4.6.95.6 1.67s-.2 1.3-.6 1.71c-.4.42-.95.63-1.67.63zM87.54 24.62V1.42h3.58V14.7l2.3-.24a32.55 32.55 0 003.4-5.45l.5-.97h3.9a34.08 34.08 0 01-4.88 7.74 67.87 67.87 0 014.49 7.5l.7 1.33h-4.08a56.57 56.57 0 00-3.9-7.09l-2.43.25v6.84h-3.58zM106.95 24.62v-5.06H112v5.06h-5.05z" fill="#000228"/><path d="M5 24.62V1.77h7c5.05 0 7.58 1.97 7.58 5.93 0 1.28-.32 2.38-.97 3.31a4.15 4.15 0 01-2.65 1.75c1.3.18 2.3.75 3.03 1.7a5.85 5.85 0 011.15 3.67c0 4.32-2.82 6.49-8.46 6.49H5zm7.2-3.14c1.53 0 2.62-.34 3.27-1.01a3.7 3.7 0 00.98-2.7c0-1.13-.36-1.96-1.08-2.47-.7-.5-1.81-.77-3.34-.77H8.62v6.95h3.58zm3.83-13.5c0-2.05-1.26-3.07-3.8-3.07H8.63v6.49h3.34c2.71 0 4.07-1.14 4.07-3.42zM22.54 16.35c0-2.82.62-4.94 1.88-6.38 1.25-1.47 2.99-2.2 5.22-2.2 2.22 0 3.94.66 5.15 1.99 1.23 1.3 1.86 3.22 1.91 5.75l-.14 2.58H26.4c.2 2.51 1.46 3.77 3.76 3.77 1.6 0 3.3-.29 5.08-.87l.73 3.03c-.74.26-1.7.48-2.89.67-1.18.2-2.16.31-2.92.31-5.08 0-7.62-2.88-7.62-8.65zM29.78 11c-1.1 0-1.92.33-2.48.98-.53.63-.83 1.68-.9 3.17h6.44c0-2.76-1.02-4.15-3.06-4.15zM39.03 23.85l.77-3.18c2.2.7 3.95 1.05 5.25 1.05 1.3 0 2.18-.13 2.65-.38.46-.24.7-.65.7-1.26 0-.6-.22-1.03-.63-1.29a9.22 9.22 0 00-2.37-.8c-2.3-.56-3.9-1.18-4.8-1.85-.9-.7-1.36-1.83-1.36-3.38 0-3.33 2.13-5 6.4-5 1.84 0 3.96.31 6.37.91L51.35 12c-2.3-.65-4.07-.98-5.32-.98-1.26 0-2.1.12-2.54.35-.42.21-.63.58-.63 1.12 0 .53.2.93.63 1.18.44.24 1.55.6 3.34 1.08 1.78.5 3.1 1.06 3.93 1.71.83.63 1.25 1.71 1.25 3.25 0 3.5-2.16 5.27-6.47 5.27-2.02 0-4.19-.38-6.5-1.12zM58.27 8.05l.07 1c1.88-.85 3.36-1.28 4.42-1.28 1.88 0 3.26.56 4.14 1.67.9 1.1 1.36 2.82 1.36 5.16v10.02h-3.58V14.7a4.9 4.9 0 00-.6-2.62c-.39-.62-1-.94-1.84-.94-.83 0-2.12.4-3.86 1.22v12.25h-3.59V8.05h3.48zM70.97 24.62V21.4h5.19V11.26h-4.9V8.05h8.48V21.4h4.91v3.2H70.97zm6.79-18.98c-.7 0-1.25-.21-1.67-.63-.4-.44-.6-1.01-.6-1.7 0-.7.22-1.26.63-1.68.42-.42.98-.63 1.67-.63.72 0 1.27.2 1.64.63.4.4.6.95.6 1.67s-.2 1.3-.6 1.71c-.4.42-.95.63-1.67.63zM87.54 24.62V1.42h3.58V14.7l2.3-.24a32.55 32.55 0 003.4-5.45l.5-.97h3.9a34.08 34.08 0 01-4.88 7.74 67.87 67.87 0 014.49 7.5l.7 1.33h-4.08a56.57 56.57 0 00-3.9-7.09l-2.43.25v6.84h-3.58zM106.95 24.62v-5.06H112v5.06h-5.05z" stroke="#000" stroke-width="2" mask="url(#a)"/></g><defs><filter id="filter0_d_2_713" x="0" y="0" width="117" height="34" filterUnits="userSpaceOnUse" color-interpolation-filters="sRGB"><feFlood flood-opacity="0" result="BackgroundImageFix"/><feColorMatrix in="SourceAlpha" values="0 0 0 0 0 0 0 0 0 0 0 0 0 0 0 0 0 0 127 0" result="hardAlpha"/><feOffset dy="4"/><feGaussianBlur stdDeviation="2"/><feComposite in2="hardAlpha" operator="out"/><feColorMatrix values="0 0 0 0 0 0 0 0 0 0 0 0 0 0 0 0 0 0 0.25 0"/><feBlend in2="BackgroundImageFix" result="effect1_dropShadow_2_713"/><feBlend in="SourceGraphic" in2="effect1_dropShadow_2_713" result="shape"/></filter></defs></svg>