<svg width="48" height="48" viewBox="0 0 48 48" fill="none" xmlns="http://www.w3.org/2000/svg"><path d="M39.55 17.77L24 4.87 8.45 17.77v6.8H4.7v-3.69L2.4 22.8 0 19.9 24 0l24 19.9-2.4 2.9-2.3-1.92v3.68h-3.75v-6.79zM13.7 48h8.53v-3.75h-4.78V39h4.78v-3.75h-4.78V31.5h4.78v-3.75h-8.53V48zm24.36-16.5h3.1V48h3.74V31.5H48v-3.75h-9.94v3.75zM8.07 38.45L11.32 48H7.36L4.3 39h-.54v9H.02V27.75h5.62a5.63 5.63 0 012.43 10.7zm-4.3-3.2h1.87a1.88 1.88 0 000-3.75H3.76v3.75zm28.2 1.95l-3.4-9.34-.07.03v-.14h-3.75V48h3.75v-9.36l3.39 9.34.07-.02V48h3.75V27.75h-3.75v9.45z" fill="#3B3C45"/><mask id="a" style="mask-type:alpha" maskUnits="userSpaceOnUse" x="0" y="0" width="48" height="48"><path d="M39.55 17.77L24 4.87 8.45 17.77v6.8H4.7v-3.69L2.4 22.8 0 19.9 24 0l24 19.9-2.4 2.9-2.3-1.92v3.68h-3.75v-6.79zM13.7 48h8.53v-3.75h-4.78V39h4.78v-3.75h-4.78V31.5h4.78v-3.75h-8.53V48zm24.36-16.5h3.1V48h3.74V31.5H48v-3.75h-9.94v3.75zM8.07 38.45L11.32 48H7.36L4.3 39h-.54v9H.02V27.75h5.62a5.63 5.63 0 012.43 10.7zm-4.3-3.2h1.87a1.88 1.88 0 000-3.75H3.76v3.75zm28.2 1.95l-3.4-9.34-.07.03v-.14h-3.75V48h3.75v-9.36l3.39 9.34.07-.02V48h3.75V27.75h-3.75v9.45z" fill="#3B3C45"/></mask><g mask="url(#a)"><path fill="#F7A804" d="M-3.6 25.22h54v25.22h-54z"/></g></svg>