<svg width="116" height="19" viewBox="0 0 116 19" fill="none" xmlns="http://www.w3.org/2000/svg">
<path d="M20.2708 7.15765C20.2009 6.94804 20.0148 6.79529 19.7908 6.76364L13.4977 5.87345L10.6833 0.322507C10.5831 0.124902 10.3764 -0.000183105 10.15 -0.000183105C9.92364 -0.000183105 9.71691 0.124902 9.61672 0.322507L6.80217 5.87345L0.509197 6.76364C0.285224 6.79529 0.0990758 6.94805 0.0291362 7.15761C-0.0408429 7.36722 0.0175193 7.59728 0.179641 7.75108L4.73316 12.0719L3.65838 18.1731C3.62008 18.3903 3.71183 18.6097 3.89496 18.7393C3.99856 18.8125 4.12127 18.8498 4.24458 18.8498C4.33926 18.8498 4.43426 18.8279 4.52125 18.7833L10.15 15.9027L15.7785 18.7833C15.9789 18.8858 16.2217 18.8688 16.4048 18.7392C16.588 18.6097 16.6797 18.3902 16.6415 18.173L15.5663 12.0719L20.1204 7.75104C20.2825 7.59728 20.3409 7.36722 20.2708 7.15765Z" fill="#FFCA56"/>
<path d="M44.1956 7.15765C44.1257 6.94804 43.9396 6.79529 43.7156 6.76364L37.4225 5.87345L34.6081 0.322507C34.508 0.124902 34.3012 -0.000183105 34.0748 -0.000183105C33.8484 -0.000183105 33.6417 0.124902 33.5415 0.322507L30.727 5.87345L24.434 6.76364C24.21 6.79529 24.0239 6.94805 23.9539 7.15761C23.884 7.36722 23.9423 7.59728 24.1044 7.75108L28.658 12.0719L27.5832 18.1731C27.5449 18.3903 27.6366 18.6097 27.8198 18.7393C27.9234 18.8125 28.0461 18.8498 28.1694 18.8498C28.2641 18.8498 28.3591 18.8279 28.446 18.7833L34.0748 15.9027L39.7033 18.7833C39.9037 18.8858 40.1465 18.8688 40.3296 18.7392C40.5128 18.6097 40.6045 18.3902 40.5663 18.173L39.4911 12.0719L44.0452 7.75104C44.2073 7.59728 44.2657 7.36722 44.1956 7.15765Z" fill="#FFCA56"/>
<path d="M68.1209 7.15765C68.051 6.94804 67.8649 6.79529 67.6409 6.76364L61.3478 5.87345L58.5334 0.322507C58.4332 0.124902 58.2265 -0.000183105 58.0001 -0.000183105C57.7737 -0.000183105 57.567 0.124902 57.4668 0.322507L54.6523 5.87345L48.3593 6.76364C48.1353 6.79529 47.9492 6.94805 47.8792 7.15761C47.8093 7.36722 47.8676 7.59728 48.0297 7.75108L52.5833 12.0719L51.5085 18.1731C51.4702 18.3903 51.5619 18.6097 51.7451 18.7393C51.8487 18.8125 51.9714 18.8498 52.0947 18.8498C52.1894 18.8498 52.2844 18.8279 52.3713 18.7833L58.0001 15.9027L63.6286 18.7833C63.829 18.8858 64.0718 18.8688 64.2549 18.7392C64.4381 18.6097 64.5298 18.3902 64.4916 18.173L63.4164 12.0719L67.9705 7.75104C68.1326 7.59728 68.191 7.36722 68.1209 7.15765Z" fill="#FFCA56"/>
<path d="M92.0457 7.15765C91.9758 6.94804 91.7897 6.79529 91.5657 6.76364L85.2726 5.87345L82.4582 0.322507C82.3581 0.124902 82.1513 -0.000183105 81.9249 -0.000183105C81.6985 -0.000183105 81.4918 0.124902 81.3916 0.322507L78.5771 5.87345L72.2841 6.76364C72.0601 6.79529 71.874 6.94805 71.804 7.15761C71.7341 7.36722 71.7924 7.59728 71.9545 7.75108L76.5081 12.0719L75.4333 18.1731C75.395 18.3903 75.4867 18.6097 75.6699 18.7393C75.7735 18.8125 75.8962 18.8498 76.0195 18.8498C76.1142 18.8498 76.2092 18.8279 76.2961 18.7833L81.9249 15.9027L87.5534 18.7833C87.7538 18.8858 87.9966 18.8688 88.1797 18.7392C88.3629 18.6097 88.4546 18.3902 88.4164 18.173L87.3412 12.0719L91.8953 7.75104C92.0574 7.59728 92.1158 7.36722 92.0457 7.15765Z" fill="#FFCA56"/>
<path d="M115.971 7.15765C115.901 6.94804 115.715 6.79529 115.491 6.76364L109.198 5.87345L106.383 0.322507C106.283 0.124902 106.077 -0.000183105 105.85 -0.000183105C105.624 -0.000183105 105.417 0.124902 105.317 0.322507L102.502 5.87345L96.2094 6.76364C95.9854 6.79529 95.7993 6.94805 95.7293 7.15761C95.6594 7.36722 95.7177 7.59728 95.8798 7.75108L100.433 12.0719L99.3586 18.1731C99.3203 18.3903 99.412 18.6097 99.5952 18.7393C99.6988 18.8125 99.8215 18.8498 99.9448 18.8498C100.039 18.8498 100.134 18.8279 100.221 18.7833L105.85 15.9027L111.479 18.7833C111.679 18.8858 111.922 18.8688 112.105 18.7392C112.288 18.6097 112.38 18.3902 112.342 18.173L111.267 12.0719L115.821 7.75104C115.983 7.59728 116.041 7.36722 115.971 7.15765Z" fill="#FFCA56"/>
</svg>
