<svg width="158" height="32" viewBox="0 0 158 32" fill="none" xmlns="http://www.w3.org/2000/svg"><path d="M46 17.34c.8-.72 1.35-1.8 1.65-3.25.1-.5.16-1.06.16-1.63 0-.64-.13-1.32-.4-2-.32-.86-.76-1.32-1.28-1.43-.78-.15-1.54.29-2.26 1.37a7.15 7.15 0 00-1.3 4.22c0 .63.13 1.31.39 2 .32.85.76 1.31 1.28 1.42.54.11 1.13-.13 1.76-.7zM34.02 14.09a5.84 5.84 0 01-1.65 3.25c-.63.57-1.22.81-1.76.7-.52-.1-.96-.57-1.28-1.42a5.63 5.63 0 01-.4-2 7.15 7.15 0 011.3-4.22c.73-1.08 1.49-1.52 2.27-1.37.52.11.96.57 1.28 1.43.26.68.4 1.36.4 2a7.8 7.8 0 01-.16 1.63z" fill="#C4C4C4"/><path fill-rule="evenodd" clip-rule="evenodd" d="M5.93 0h43.29a4.98 4.98 0 014.96 5.01v16.7a4.98 4.98 0 01-4.96 5.02H33.7L35.83 32l-9.37-5.27H5.96A4.98 4.98 0 011 21.7V5.01A4.96 4.96 0 015.93 0zM3.65 4.55c.3-.42.76-.64 1.37-.68 1.1-.09 1.74.44 1.89 1.58.67 4.6 1.41 8.48 2.2 11.67l4.76-9.16c.43-.84.98-1.28 1.63-1.32.95-.07 1.54.55 1.78 1.84A41.4 41.4 0 0019.35 16c.56-5.58 1.52-9.6 2.87-12.09.32-.61.8-.92 1.43-.97.5-.04.96.11 1.37.44.41.33.63.75.68 1.26.02.4-.05.72-.22 1.05-.85 1.58-1.55 4.24-2.11 7.94a41.37 41.37 0 00-.61 8.37c.04.55-.04 1.03-.26 1.45a1.4 1.4 0 01-1.15.8c-.57.04-1.16-.23-1.72-.82-2.02-2.09-3.63-5.21-4.8-9.36a413.77 413.77 0 00-3.14 6.33c-1.28 2.48-2.37 3.75-3.28 3.82-.59.04-1.09-.46-1.52-1.52-1.11-2.88-2.3-8.44-3.59-16.68-.06-.57.04-1.08.35-1.47zM50.39 8a5.01 5.01 0 00-3.47-2.55c-.42-.09-.8-.13-1.18-.13-2.09 0-3.78 1.1-5.1 3.3a11.74 11.74 0 00-1.7 6.2c0 1.69.34 3.14 1.04 4.34a5.01 5.01 0 003.48 2.55c.41.1.8.14 1.17.14 2.11 0 3.8-1.1 5.11-3.3a11.87 11.87 0 001.7-6.22c0-1.71-.35-3.14-1.05-4.33zM33.3 5.45A5.06 5.06 0 0136.75 8a8.39 8.39 0 011.05 4.33c0 2.26-.57 4.33-1.7 6.22-1.3 2.2-3 3.3-5.11 3.3-.37 0-.76-.05-1.17-.14a5.01 5.01 0 01-3.48-2.55 8.58 8.58 0 01-1.05-4.35c0-2.26.57-4.33 1.7-6.2 1.33-2.2 3.02-3.3 5.1-3.3.38 0 .77.05 1.18.14z" fill="#C4C4C4"/><path d="M57.5 13.34c0-2.24.72-4.09 2.18-5.54a7.36 7.36 0 015.5-2.15c.85 0 1.65.09 2.37.28V9.5a8.04 8.04 0 00-2.18-.32c-1.04 0-1.89.4-2.58 1.2a4.6 4.6 0 00-1.02 3.08c0 1.34.34 2.4 1.04 3.19.7.77 1.6 1.16 2.76 1.16.57 0 1.22-.1 1.98-.33v3.56c-.83.24-1.59.35-2.26.35a7.5 7.5 0 01-5.63-2.21c-1.44-1.48-2.16-3.43-2.16-5.83z" fill="#C4C4C4"/><path fill-rule="evenodd" clip-rule="evenodd" d="M70.07 7.65a5.82 5.82 0 014.7-2.02c2.13 0 3.76.68 4.91 2.02 1.13 1.36 1.7 3.3 1.7 5.8s-.57 4.46-1.68 5.85c-1.1 1.38-2.7 2.08-4.76 2.08-2.13 0-3.76-.7-4.87-2.08-1.1-1.39-1.67-3.39-1.67-6 0-2.42.54-4.31 1.67-5.65zm4.7 10.33c.74 0 1.32-.3 1.71-.92.4-.62.61-1.85.64-3.65 0-2.93-.79-4.38-2.3-4.38-1.47 0-2.18 1.43-2.18 4.31 0 1.87.17 3.1.54 3.72.37.61.9.92 1.59.92z" fill="#C4C4C4"/><path d="M91.33 9.4l.79-3.36h5.17l2 14.97h-3.95l-1.07-10.28L91.79 21h-2.7l-2.58-10.3L85.49 21H81.7l1.9-14.97h5.04c.72 3.23 1.28 6 1.7 8.33l.43-2.33c.17-.9.37-1.78.56-2.63zM109.45 9.4l.78-3.36h5.15l2 14.97h-3.95l-1.07-10.28L109.9 21h-2.7l-2.58-10.3L103.6 21H99.8l1.9-14.97h5.04c.72 3.23 1.28 6 1.7 8.33l.43-2.33c.18-.9.37-1.78.57-2.63zM126.08 15.1h-3.55v2.75h4.11v3.18h-8.1V6.07h8.08v3.18h-4.09V12h3.55v3.1z" fill="#C4C4C4"/><path fill-rule="evenodd" clip-rule="evenodd" d="M138.54 10.62a4.03 4.03 0 01-2.42 3.64l3.2 6.75h-4.22l-3.24-6.81h-.06V21h-4V6.04h4.65c1.87 0 3.37.42 4.46 1.23a3.96 3.96 0 011.63 3.35zm-6.76-1.7v3.56c1.76-.02 2.65-.55 2.65-1.58 0-.7-.2-1.19-.61-1.5-.41-.3-1.09-.45-2.04-.48z" fill="#C4C4C4"/><path d="M138.71 13.34a7.4 7.4 0 017.67-7.7 9 9 0 012.38.3v3.55a8.05 8.05 0 00-2.18-.32c-1.04 0-1.89.4-2.59 1.2a4.6 4.6 0 00-1.02 3.08c0 1.34.35 2.4 1.05 3.19.7.77 1.6 1.16 2.76 1.16.56 0 1.22-.1 1.98-.33v3.56c-.83.24-1.6.35-2.26.35a7.5 7.5 0 01-5.64-2.21c-1.43-1.48-2.15-3.43-2.15-5.83zM153.87 15.08v2.74H158v3.2h-8.11V6.03h8.08v3.2h-4.1v2.74h3.54v3.1h-3.54z" fill="#C4C4C4"/></svg>